<?xml version="1.0" encoding="UTF-8"?>
<svg id="katman_1" xmlns="http://www.w3.org/2000/svg" version="1.1" viewBox="0 0 323.2 62.56" preserveAspectRatio="xMinYMid meet">
  <!-- Generator: Adobe Illustrator 30.0.0, SVG Export Plug-In . SVG Version: 2.1.1 Build 123)  -->
  <defs>
    <style>
      .st0 {
        fill: #2c3437;
      }
    </style>
  </defs>
  <path class="st0" d="M34.45,6.35c-1.63-.71-3.23-.82-4.8-.33s-3.04,1.29-4.41,2.41c-.66.7-1.24,1.37-1.75,2.01,2.89,1.5,4.95,3.75,6.2,6.76.98,2.6,1.15,5.22.49,7.84-.66,2.63-2.03,4.86-4.12,6.69-2.24,1.85-4.77,2.85-7.59,3.02-2.82.17-5.45-.54-7.89-2.12-.57.32-1.15.66-1.74,1.03-.02,0-.19.17-.5.49-.32.32-.65.75-1,1.28-.35.53-.6,1.12-.74,1.77-.14.65-.05,1.31.28,1.97.55.72,1.2,1.32,1.97,1.79,1.33.74,2.71,1.04,4.15.91,1.43-.13,2.82-.51,4.15-1.15.98-.47,1.98-1,3.01-1.61,1.12-.67,2.27-1.28,3.44-1.84,1.18-.56,2.37-.93,3.59-1.1,1.22-.18,2.46-.03,3.71.45,1.52.66,2.65,1.69,3.39,3.08.74,1.39,1.17,2.91,1.3,4.57.12,1.65.02,3.2-.32,4.65-.09,1.75-.64,3.34-1.66,4.76-1.02,1.43-2.2,2.66-3.54,3.7-2.28,1.81-4.81,3.17-7.59,4.07-2.78.91-5.62,1.26-8.52,1.05-1.91-.16-3.8-.61-5.65-1.36-1.86-.74-3.52-1.76-4.99-3.07-1.47-1.31-2.57-2.88-3.31-4.71l.53-.21c.82,2.02,2.08,3.69,3.76,5.02,1.68,1.33,3.57,2.31,5.67,2.95,2.1.64,4.18.92,6.25.85,2.9-.11,5.69-.75,8.39-1.93,2.69-1.18,5.04-2.81,7.05-4.9.93-.95,1.69-2.02,2.28-3.23.59-1.2.84-2.49.73-3.85-.14-1.29-.61-2.41-1.4-3.34-.79-.94-1.8-1.6-3.03-1.99-1.27-.37-2.52-.51-3.74-.41-1.22.1-2.44.34-3.64.72-1.2.38-2.4.81-3.59,1.29-1.12.45-2.25.86-3.39,1.23-1.14.37-2.29.62-3.44.75-1.38.16-2.77.08-4.19-.25-1.42-.33-2.61-1.03-3.57-2.09-.66-.79-1.05-1.66-1.16-2.6s-.02-1.88.29-2.8c.31-.93.78-1.76,1.4-2.51.66-.8,1.41-1.51,2.25-2.12.84-.61,1.71-1.17,2.61-1.68-2.29-1.73-3.84-3.97-4.68-6.71-.66-2.37-.67-4.72-.03-7.04s1.86-4.33,3.64-6.02c1.92-1.73,4.13-2.8,6.64-3.22,2.5-.42,4.94-.11,7.31.91.78-.99,1.69-1.98,2.71-2.98s2.14-1.88,3.34-2.63c1.2-.75,2.46-1.23,3.77-1.45s2.64-.02,3.99.58l-1.72,2.01c-.19.21-.38.43-.57.65ZM8.74,33.74l.1-.07s-.06.04-.1.07ZM18.28,34.21c.79-.15,1.49-.5,2.09-1.03.6-.54,1.1-1.14,1.51-1.81,1.07-1.77,1.76-3.71,2.07-5.81.31-2.1.35-4.17.11-6.2-.2-2.09-.76-4.09-1.68-6-.41-.83-.95-1.6-1.61-2.31s-1.46-1.17-2.4-1.38c-.44-.03-.88-.03-1.33,0-.85.19-1.59.59-2.21,1.21-.62.61-1.13,1.29-1.54,2.02-1.07,1.96-1.73,4.09-1.97,6.4s-.15,4.55.27,6.73c.17,1.01.47,2.11.9,3.3.43,1.19,1.02,2.24,1.77,3.16.76.92,1.71,1.49,2.87,1.72h.39c.25,0,.5,0,.75,0Z"/>
  <path class="st0" d="M47.92,34.91c-1.71,0-3.35-.32-4.91-.97s-2.95-1.58-4.18-2.8c-1.22-1.22-2.16-2.61-2.8-4.17-.65-1.56-.97-3.2-.97-4.92s.32-3.35.97-4.91c.65-1.56,1.58-2.95,2.8-4.17,1.22-1.22,2.62-2.16,4.18-2.8s3.19-.97,4.91-.97,3.36.32,4.92.97,2.95,1.58,4.17,2.8c1.22,1.22,2.15,2.62,2.8,4.17.65,1.56.98,3.19.98,4.91s-.33,3.36-.98,4.92c-.65,1.56-1.59,2.95-2.8,4.17-1.22,1.22-2.61,2.15-4.17,2.8s-3.2.97-4.92.97ZM47.92,34.34c.19,0,.38,0,.56-.01,1.12-.2,2.12-.86,3.01-1.99.89-1.12,1.6-2.58,2.12-4.38s.79-3.76.79-5.9-.26-4.07-.77-5.85c-.52-1.78-1.21-3.23-2.08-4.36-.87-1.13-1.86-1.81-2.96-2.05h-.67c-.22-.01-.44,0-.67.01-1.1.23-2.09.91-2.96,2.04-.87,1.13-1.56,2.58-2.08,4.36-.52,1.78-.77,3.73-.77,5.85s.26,4.11.79,5.9,1.23,3.25,2.12,4.38c.88,1.12,1.89,1.79,3.01,1.99h.57Z"/>
  <path class="st0" d="M62.01,34.57c-.53-.54-.79-1.14-.79-1.81,0-.28.04-.56.13-.86l12.61-21.84h-10.8v-.29s0-.29,0-.29h17.63l-14.03,24.51h13.07v.57h-17.82Z"/>
  <path class="st0" d="M106.78,34c.23.18.49.28.78.3s.59.01.9-.01c.1,0,.19-.01.29-.01v.29h-2.93c-.81,0-1.38-.01-1.71-.01-.17,0-.34,0-.52.01-.35,0-.71,0-1.06-.01-.35-.02-.7-.1-1.03-.23-.89-.44-1.42-1.08-1.59-1.93-.17-.85-.22-1.72-.16-2.63,0-.28.01-.55.01-.8-1.26,1.12-2.63,2.17-4.09,3.16-1.46.99-3.02,1.71-4.68,2.17-.62.16-1.25.26-1.89.29-1.06,0-1.98-.27-2.76-.8-.78-.53-1.39-1.27-1.84-2.23-.52-1.17-.83-2.38-.93-3.63s-.14-2.51-.1-3.77c0-.38.01-.76.01-1.13v-7.76c0-.41-.08-.73-.2-.96-.12-.23-.28-.4-.47-.5-.19-.11-.38-.17-.57-.19-.19-.02-.35-.03-.49,0-.13.02-.22.03-.24.03v-.29c.67.02,1.33-.07,1.98-.27.76-.23,1.47-.54,2.14-.94s1.27-.8,1.79-1.21c.53-.41,1.09-.91,1.69-1.49v17.06c0,.3,0,.6-.01.92-.04.59-.04,1.19,0,1.79.03.6.16,1.15.37,1.66.34.71.83,1.14,1.46,1.28.63.15,1.3.14,2.02-.04.71-.17,1.36-.39,1.93-.65,1.81-.82,3.44-1.9,4.91-3.24v-12.94c0-.4-.06-.72-.19-.95-.13-.23-.29-.4-.47-.51s-.38-.17-.57-.19c-.19-.02-.36-.02-.49,0-.14.01-.22.03-.24.04v-.3c.66.03,1.31-.06,1.97-.26.76-.23,1.47-.54,2.14-.94s1.27-.8,1.8-1.21c.52-.41,1.08-.91,1.69-1.49v19.24c-.01.17-.01.34-.01.52-.04.88.01,1.75.16,2.62.14.87.55,1.6,1.23,2.2Z"/>
  <path class="st0" d="M152.27,34c.23.17.49.27.79.29.3.02.59.02.89,0,.11,0,.21-.02.3-.03v.3h-12.34v-.3c.1,0,.19.02.29.03.31.03.61.03.9,0s.55-.12.78-.29c.56-.51.94-1.1,1.12-1.78.18-.68.27-1.23.27-1.66v-15.75c-.09-1.29-.44-2.15-1.05-2.58s-1.36-.57-2.23-.43c-.87.14-1.74.41-2.6.81-.86.4-1.58.79-2.17,1.15-.58.37-.89.57-.92.6-.16.13-.35.29-.55.46-.21.17-.41.34-.62.51-.21.17-.44.36-.71.58,0,.03,0,.13.01.3s.02.37.04.59c.01.22.03.41.04.58s.01.26.01.27v13.04c0,.45.11,1,.29,1.64.19.64.55,1.2,1.08,1.68.23.17.49.27.79.29s.59.02.89,0c.1,0,.19-.02.29-.03v.3h-12.32v-.3c.1,0,.19.02.29.03.3.03.59.03.89,0s.56-.12.79-.29c.48-.41.82-.9,1.01-1.46s.31-1.08.34-1.54h0s.01-.05.01-.07h0v-2.47c0-1.56,0-3.36,0-5.41,0-2.05,0-4.67,0-7.86v-.39c-.03-.68-.14-1.23-.34-1.66-.34-.72-.85-1.15-1.53-1.29-.67-.14-1.41-.11-2.21.11-.8.22-1.57.52-2.3.89-.74.37-1.34.71-1.82,1.02-.48.31-.73.47-.75.5-.61.48-1.21.98-1.79,1.49v14.69c0,.43.09.99.27,1.66.18.68.55,1.27,1.12,1.78.23.18.49.28.78.3.29.02.59.01.9-.01.1,0,.19-.01.29-.01v.29h-12.32v-.29c.1,0,.19,0,.29.01.3.03.59.03.89.01s.56-.12.79-.3c.55-.5.92-1.09,1.1-1.77.18-.68.27-1.23.27-1.66v-15.54c-.04-.45-.15-.78-.34-.99-.19-.21-.41-.35-.65-.41s-.46-.08-.65-.06-.29.03-.32.04v-.3c.66.03,1.32-.06,1.97-.26.76-.23,1.47-.54,2.14-.94.67-.4,1.27-.8,1.79-1.21.53-.41,1.09-.91,1.69-1.49v5.7c1.42-1.24,2.92-2.37,4.51-3.37,1.34-.9,2.79-1.58,4.35-2.04h.03s.02,0,.04-.01c.66-.17,1.27-.26,1.82-.27h.09c.82,0,1.53.15,2.14.44s1.11.69,1.52,1.2c.39.48.71,1.01.96,1.61.35.85.6,1.73.75,2.63,1.47-1.3,3.03-2.48,4.68-3.54,1.35-.9,2.8-1.58,4.35-2.04h.01s.04-.01.06-.01c.67-.17,1.28-.26,1.84-.27h.13c.9,0,1.66.18,2.3.54.63.36,1.15.83,1.56,1.42.41.59.73,1.23.97,1.94.24.7.41,1.41.52,2.13l.09.69h0c.03.34.05.84.07,1.52v13.06c0,.45.11,1,.3,1.64.19.64.55,1.2,1.08,1.66Z"/>
  <path class="st0" d="M179.26,34c.23.18.49.28.78.3s.59.01.9-.01c.1,0,.19-.01.29-.01v.29h-2.93c-.81,0-1.38-.01-1.71-.01-.17,0-.34,0-.52.01-.35,0-.71,0-1.06-.01-.35-.02-.7-.1-1.03-.23-.89-.44-1.42-1.08-1.59-1.93-.17-.85-.22-1.72-.16-2.63,0-.28.01-.55.01-.8-1.26,1.12-2.63,2.17-4.09,3.16-1.46.99-3.02,1.71-4.68,2.17-.62.16-1.25.26-1.89.29-1.06,0-1.98-.27-2.76-.8-.78-.53-1.39-1.27-1.84-2.23-.52-1.17-.83-2.38-.93-3.63s-.14-2.51-.1-3.77c0-.38.01-.76.01-1.13v-7.76c0-.41-.08-.73-.2-.96-.12-.23-.28-.4-.47-.5-.19-.11-.38-.17-.57-.19-.19-.02-.35-.03-.49,0s-.22.03-.24.03v-.29c.67.02,1.33-.07,1.98-.27.76-.23,1.47-.54,2.14-.94s1.27-.8,1.79-1.21c.53-.41,1.09-.91,1.69-1.49v17.06c0,.3,0,.6-.01.92-.04.59-.04,1.19,0,1.79.03.6.16,1.15.37,1.66.34.71.83,1.14,1.46,1.28.63.15,1.3.14,2.02-.04.71-.17,1.36-.39,1.93-.65,1.81-.82,3.44-1.9,4.91-3.24v-12.94c0-.4-.06-.72-.19-.95-.13-.23-.29-.4-.47-.51s-.38-.17-.57-.19c-.19-.02-.36-.02-.49,0-.14.01-.22.03-.24.04v-.3c.66.03,1.32-.06,1.97-.26.76-.23,1.47-.54,2.15-.94s1.27-.8,1.8-1.21c.52-.41,1.08-.91,1.69-1.49v19.24c-.01.17-.01.34-.01.52-.04.88.01,1.75.16,2.62.14.87.55,1.6,1.23,2.2Z"/>
  <path class="st0" d="M208.39,34.02c.23.18.49.28.79.3.3.02.59.01.89-.01.1,0,.21-.01.3-.01v.29h-12.34v-.29c.1,0,.2,0,.3.01.3.03.59.03.89.01.3-.02.56-.12.79-.3.56-.51.92-1.1,1.11-1.77s.27-1.23.27-1.67v-15.75c-.09-1.29-.43-2.15-1.05-2.58-.61-.43-1.36-.57-2.23-.43-.88.14-1.74.41-2.6.82-.86.41-1.58.79-2.17,1.15s-.89.56-.92.6c-.61.48-1.2.98-1.78,1.49v14.69c0,.43.09.99.27,1.66.18.68.55,1.27,1.1,1.78.23.18.49.28.79.3s.59.01.89-.01c.11,0,.21-.01.3-.01v.29h-12.34v-.29c.1,0,.19,0,.29.01.31.03.61.03.9.01s.55-.12.77-.3c.56-.5.94-1.09,1.12-1.76.18-.68.27-1.23.27-1.66v-15.34c0-.4-.08-.72-.2-.95-.12-.23-.28-.4-.47-.5s-.38-.16-.57-.19-.35-.03-.49-.01c-.13.01-.22.03-.24.04v-.29c.67.02,1.33-.07,1.98-.27.75-.23,1.47-.54,2.14-.94s1.27-.8,1.79-1.21c.53-.41,1.09-.91,1.69-1.49v5.7c1.42-1.24,2.91-2.37,4.49-3.37,1.35-.9,2.8-1.58,4.35-2.04h.03s.03,0,.04-.01c.33-.09.65-.15.96-.2.31-.04.6-.06.88-.07h.1c1.19.02,2.16.33,2.9.93.74.6,1.3,1.36,1.68,2.27s.65,1.86.79,2.83c.04.24.07.47.09.69h0c0,.17.02.97.03,2.43,0,1.46.02,3.12.02,4.99,0,1.87.01,4.25.02,7.15.02.45.12,1,.31,1.64.19.64.54,1.2,1.07,1.66Z"/>
  <path class="st0" d="M245.68,34.02c.23.18.49.28.79.3.3.02.59.01.89-.01.11,0,.21-.01.3-.01v.29h-12.34v-.29c.1,0,.2,0,.3.01.3.03.59.03.89.01.3-.02.56-.12.79-.3.56-.51.92-1.1,1.1-1.77.18-.67.27-1.23.27-1.67v-15.75c-.09-1.29-.44-2.15-1.05-2.58-.61-.43-1.36-.57-2.23-.43-.88.14-1.74.41-2.6.82-.86.41-1.58.79-2.17,1.15-.58.36-.89.56-.92.6-.61.48-1.21.98-1.78,1.49v14.69c0,.43.09.99.27,1.66.18.68.55,1.27,1.1,1.78.23.18.49.28.79.3s.59.01.89-.01c.11,0,.21-.01.3-.01v.29h-12.34v-.29c.1,0,.19,0,.29.01.31.03.61.03.9.01s.56-.12.77-.3c.56-.5.94-1.09,1.12-1.76.18-.68.27-1.23.27-1.66v-15.34c0-.4-.08-.72-.2-.95-.12-.23-.28-.4-.47-.5-.19-.1-.38-.16-.57-.19s-.35-.03-.49-.01c-.13.01-.21.03-.24.04v-.29c.67.02,1.33-.07,1.98-.27.76-.23,1.47-.54,2.14-.94s1.27-.8,1.79-1.21c.53-.41,1.09-.91,1.69-1.49v5.7c1.42-1.24,2.91-2.37,4.49-3.37,1.35-.9,2.8-1.58,4.35-2.04h.03s.03,0,.04-.01c.33-.09.65-.15.96-.2.31-.04.6-.06.88-.07h.1c1.2.02,2.16.33,2.9.93.74.6,1.3,1.36,1.68,2.27s.65,1.86.79,2.83c.04.24.07.47.09.69h0c0,.17.02.97.03,2.43,0,1.46.02,3.12.02,4.99,0,1.87.01,4.25.02,7.15.02.45.12,1,.31,1.64.19.64.54,1.2,1.07,1.66Z"/>
  <path class="st0" d="M272.66,34c.23.18.49.28.78.3s.59.01.9-.01c.1,0,.19-.01.29-.01v.29h-2.93c-.81,0-1.38-.01-1.71-.01-.17,0-.34,0-.52.01-.35,0-.71,0-1.06-.01-.35-.02-.7-.1-1.03-.23-.89-.44-1.42-1.08-1.59-1.93-.17-.85-.22-1.72-.16-2.63,0-.28.01-.55.01-.8-1.26,1.12-2.63,2.17-4.09,3.16-1.46.99-3.02,1.71-4.68,2.17-.62.16-1.25.26-1.89.29-1.06,0-1.98-.27-2.76-.8-.78-.53-1.39-1.27-1.84-2.23-.52-1.17-.83-2.38-.93-3.63s-.14-2.51-.1-3.77c0-.38.01-.76.01-1.13v-7.76c0-.41-.08-.73-.2-.96s-.28-.4-.47-.5c-.19-.11-.38-.17-.57-.19s-.35-.03-.49,0c-.13.02-.21.03-.24.03v-.29c.67.02,1.33-.07,1.98-.27.76-.23,1.47-.54,2.14-.94s1.27-.8,1.79-1.21c.53-.41,1.09-.91,1.69-1.49v17.06c0,.3,0,.6-.01.92-.04.59-.04,1.19,0,1.79.03.6.16,1.15.37,1.66.34.71.83,1.14,1.46,1.28.63.15,1.3.14,2.02-.04.71-.17,1.36-.39,1.93-.65,1.81-.82,3.44-1.9,4.91-3.24v-12.94c0-.4-.06-.72-.19-.95-.13-.23-.29-.4-.47-.51-.19-.11-.38-.17-.57-.19-.19-.02-.36-.02-.49,0-.14.01-.22.03-.24.04v-.3c.66.03,1.32-.06,1.97-.26.76-.23,1.47-.54,2.15-.94s1.27-.8,1.8-1.21c.52-.41,1.08-.91,1.69-1.49v19.24c-.01.17-.01.34-.01.52-.04.88.01,1.75.16,2.62.14.87.55,1.6,1.23,2.2Z"/>
  <path class="st0" d="M294.29,9.45c0,.07,0,.31,0,.73,0,.42.01.9.02,1.43,0,.53.02,1.21.03,2.03-1.02-.31-1.94-.49-2.75-.56-.81-.07-1.68,0-2.6.21-.93.21-1.83.65-2.7,1.33-.74,1.07-1.29,2.03-1.66,2.89s-.57,1.38-.6,1.57v11.49c0,.43.08.99.26,1.66.18.68.55,1.28,1.12,1.79.23.17.49.27.79.29s.59.01.89-.01c.1,0,.19-.01.29-.01v.29h-12.32v-.29c.1,0,.19,0,.29.01.31.03.61.03.9.01s.55-.12.78-.29c.56-.51.92-1.1,1.1-1.78.18-.68.27-1.23.27-1.66v-15.28c0-.41-.06-.73-.19-.96s-.29-.4-.47-.5-.38-.17-.57-.19-.36-.02-.49,0c-.14.01-.22.03-.24.04v-.3c.66.03,1.32-.06,1.97-.26.76-.24,1.47-.56,2.15-.95.67-.39,1.27-.8,1.79-1.22.53-.41,1.09-.91,1.69-1.49v7.98c.1-.21.2-.44.32-.67.38-.8.9-1.67,1.56-2.6.99-1.36,2.11-2.43,3.36-3.23,1.54-.98,3.21-1.47,5.02-1.49Z"/>
  <path class="st0" d="M321.23,34c.23.18.49.28.78.3s.59.01.9-.01c.1,0,.19-.01.29-.01v.29h-2.93c-.81,0-1.38-.01-1.71-.01-.17,0-.34,0-.52.01-.35,0-.71,0-1.06-.01-.35-.02-.7-.1-1.03-.23-.89-.44-1.42-1.08-1.59-1.93-.17-.85-.22-1.72-.16-2.63,0-.28.01-.55.01-.8-1.26,1.12-2.63,2.17-4.09,3.16-1.46.99-3.02,1.71-4.68,2.17-.62.16-1.25.26-1.89.29-1.06,0-1.98-.27-2.76-.8-.78-.53-1.39-1.27-1.84-2.23-.52-1.17-.83-2.38-.93-3.63-.11-1.25-.14-2.51-.1-3.77,0-.38.01-.76.01-1.13v-7.76c0-.41-.08-.73-.2-.96-.12-.23-.28-.4-.47-.5-.19-.11-.38-.17-.57-.19s-.35-.03-.49,0c-.13.02-.21.03-.24.03v-.29c.67.02,1.33-.07,1.98-.27.76-.23,1.47-.54,2.14-.94s1.27-.8,1.79-1.21c.53-.41,1.09-.91,1.69-1.49v17.06c0,.3,0,.6-.01.92-.04.59-.04,1.19,0,1.79.03.6.16,1.15.37,1.66.34.71.83,1.14,1.46,1.28.63.15,1.3.14,2.02-.04.71-.17,1.36-.39,1.93-.65,1.81-.82,3.44-1.9,4.91-3.24v-12.94c0-.4-.06-.72-.19-.95-.13-.23-.29-.4-.47-.51-.19-.11-.38-.17-.57-.19-.19-.02-.36-.02-.49,0-.14.01-.22.03-.24.04v-.3c.66.03,1.32-.06,1.97-.26.76-.23,1.47-.54,2.15-.94s1.27-.8,1.8-1.21c.52-.41,1.08-.91,1.69-1.49v19.24c-.01.17-.01.34-.01.52-.04.88.01,1.75.16,2.62.14.87.55,1.6,1.23,2.2Z"/>
  <polygon class="st0" points="48.61 6.31 45.32 3.03 48.61 -.25 51.9 3.03 48.61 6.31"/>
  <rect class="st0" x="92.8" y=".96" width="4.64" height="4.64" transform="translate(25.54 68.22) rotate(-45)"/>
  <rect class="st0" x="165.28" y=".96" width="4.64" height="4.64" transform="translate(46.78 119.48) rotate(-45)"/>
</svg>